<?xml version="1.0" standalone="no"?>
<!DOCTYPE svg PUBLIC "-//W3C//DTD SVG 20010904//EN"
 "http://www.w3.org/TR/2001/REC-SVG-20010904/DTD/svg10.dtd">
<svg version="1.0" xmlns="http://www.w3.org/2000/svg"
 width="931.000000pt" height="1280.000000pt" viewBox="0 0 931.000000 1280.000000"
 preserveAspectRatio="xMidYMid meet">
<g transform="translate(0.000000,1280.000000) scale(0.100000,-0.100000)"
fill="#000000" stroke="none">
<path d="M1378 12775 c-30 -20 -38 -32 -42 -67 -31 -252 -40 -282 -111 -355
-64 -67 -93 -70 -157 -17 -23 20 -53 41 -65 47 -13 6 -23 16 -23 23 0 23 -19
25 -57 5 -49 -25 -83 -78 -95 -144 -13 -69 -59 -162 -116 -233 -43 -52 -213
-194 -234 -194 -14 0 -48 -63 -48 -88 0 -16 -39 -67 -120 -157 -135 -150 -166
-178 -190 -170 -30 9 -73 -49 -93 -128 -29 -112 -30 -132 -13 -165 9 -17 16
-42 16 -57 0 -18 5 -25 19 -25 10 0 44 -12 75 -26 41 -19 73 -26 116 -25 72 0
110 18 170 81 l45 47 185 7 c268 9 458 47 567 113 143 86 177 95 222 57 44
-37 53 -58 110 -250 73 -247 111 -409 191 -794 87 -423 124 -577 189 -791 118
-391 264 -703 486 -1039 124 -186 193 -273 463 -579 355 -403 453 -524 588
-731 59 -90 69 -111 67 -146 -2 -48 -32 -135 -101 -294 -65 -147 -87 -251 -79
-380 7 -119 30 -194 117 -380 80 -170 87 -190 145 -409 24 -91 51 -185 59
-209 12 -33 13 -47 4 -61 -8 -13 -6 -52 6 -152 24 -183 31 -445 17 -614 -17
-205 -45 -359 -116 -640 -85 -333 -122 -519 -137 -692 -11 -130 -10 -147 5
-172 9 -16 15 -30 13 -32 -3 -2 -18 -78 -35 -169 -31 -172 -107 -457 -241
-915 -93 -315 -134 -474 -151 -582 -6 -43 -18 -86 -26 -95 -8 -9 -17 -43 -19
-75 -14 -207 -90 -379 -246 -555 -56 -62 -125 -144 -154 -183 -63 -84 -136
-225 -138 -268 -1 -30 1 -32 44 -39 25 -3 91 -7 147 -7 160 -1 260 39 318 127
31 48 49 126 34 150 -9 14 -1 33 42 102 84 133 116 174 170 215 85 65 80 50
239 650 34 127 133 480 220 785 337 1178 720 2549 761 2717 42 176 54 197 93
154 24 -27 51 -117 82 -278 34 -183 62 -267 150 -461 122 -268 136 -311 184
-592 62 -356 150 -616 296 -871 70 -124 87 -171 209 -584 137 -464 288 -1039
394 -1498 44 -189 47 -220 30 -264 -19 -49 -60 -276 -51 -285 4 -4 46 -13 92
-19 153 -21 270 1 307 58 40 61 34 180 -16 305 -44 109 -50 148 -61 381 -16
363 -47 495 -242 1031 -126 349 -164 517 -237 1071 -65 482 -87 587 -217 1030
-138 466 -164 605 -171 895 -3 145 -1 201 6 190 6 -8 11 -29 11 -47 0 -38 3
-41 105 -74 48 -15 131 -56 207 -102 220 -132 215 -130 364 -137 112 -6 138
-11 190 -34 72 -33 95 -54 197 -181 285 -354 428 -739 494 -1328 26 -231 23
-708 -5 -974 -39 -361 -124 -845 -227 -1283 -72 -309 -91 -355 -251 -606 -98
-152 -97 -150 -9 -183 40 -15 60 -18 82 -11 15 5 58 12 95 16 125 11 196 94
216 250 14 105 47 169 118 230 65 56 95 131 125 312 134 814 234 1353 295
1590 32 128 53 183 163 432 68 156 85 225 78 323 -4 42 -3 77 1 77 12 0 37
-47 77 -145 150 -360 189 -608 215 -1340 15 -416 34 -612 86 -860 50 -234 160
-523 271 -709 60 -101 184 -267 196 -263 18 6 95 155 118 230 16 51 20 87 18
145 -4 76 -7 85 -101 278 -120 246 -160 381 -218 734 -86 528 -60 1212 62
1590 30 92 42 148 45 210 4 62 9 88 21 97 14 12 14 15 -6 33 -13 12 -22 33
-22 50 0 35 -71 115 -192 217 -287 242 -364 526 -309 1133 26 278 79 702 92
738 6 15 13 21 18 16 5 -5 73 -178 151 -384 249 -656 409 -1062 464 -1175 94
-195 201 -316 503 -568 113 -94 168 -134 181 -131 12 4 30 -7 52 -30 32 -33
60 -46 60 -29 0 3 -13 40 -30 82 -16 42 -45 121 -65 176 -62 170 -127 291
-209 390 -42 50 -104 133 -139 185 -60 89 -125 160 -147 160 -6 0 -10 7 -10
16 0 10 -37 56 -83 103 -98 102 -166 199 -234 336 -96 192 -143 346 -242 790
-39 176 -84 369 -101 429 -139 494 -350 776 -764 1023 -60 35 -298 159 -530
273 -422 210 -605 314 -854 487 -65 46 -129 94 -143 108 -13 13 -35 35 -49 47
-120 111 -148 141 -183 193 -41 59 -125 238 -163 344 -15 43 -36 69 -109 140
-164 156 -342 258 -735 421 -561 233 -750 348 -1020 620 -131 132 -257 287
-370 456 -167 247 -236 375 -643 1187 -346 690 -394 775 -447 792 -33 10 -23
22 44 54 153 74 182 185 64 247 -31 16 -178 34 -284 34 -52 0 -75 4 -84 16
-10 11 -23 14 -51 9 -48 -8 -112 23 -139 68 -25 40 -25 53 -1 60 16 4 20 18
26 85 8 94 -6 178 -37 218 -28 35 -106 84 -132 83 -12 0 -38 -11 -58 -24z
m1658 -12261 c-10 -14 -20 -23 -23 -20 -3 3 2 17 11 32 10 14 20 23 23 20 3
-3 -2 -17 -11 -32z"/>
</g>
</svg>
