<svg width="85" height="85" viewBox="0 0 85 85" fill="none" xmlns="http://www.w3.org/2000/svg">
<circle cx="42.5" cy="42.5" r="42" stroke="white"/>
<path d="M42.1442 18.042C41.4724 17.3701 40.5791 17 39.6289 17C38.9039 17 38.2119 17.2155 37.6262 17.6161C37.0405 17.2154 36.3485 17 35.6235 17C34.6734 17 33.78 17.3701 33.1082 18.0419C32.4362 18.7138 32.0662 19.607 32.0662 20.5574C32.0662 21.5075 32.4362 22.4009 33.1082 23.0729L37.1136 27.078C37.2551 27.2195 37.4408 27.2903 37.6263 27.2903C37.8118 27.2903 37.9975 27.2195 38.1391 27.0779L42.1442 23.0727C43.5308 21.6855 43.5307 19.4288 42.1442 18.042ZM41.1185 22.0473L37.6264 25.5396L34.1338 22.0473C33.7359 21.6494 33.5167 21.1202 33.5167 20.5574C33.5167 19.9947 33.7357 19.4655 34.1337 19.0676C34.5316 18.6696 35.0607 18.4504 35.6235 18.4504C36.1863 18.4504 36.7154 18.6696 37.1136 19.0677C37.2495 19.2036 37.434 19.28 37.6264 19.28C37.8188 19.28 38.0032 19.2036 38.1391 19.0676C38.537 18.6696 39.0661 18.4504 39.6289 18.4504C40.1917 18.4504 40.7206 18.6696 41.1185 19.0676C41.9398 19.889 41.9397 21.2258 41.1185 22.0473Z" fill="white"/>
<path d="M48.8439 25.9149C48.4395 25.5102 47.9018 25.2875 47.3296 25.2875C46.9748 25.2875 46.6332 25.3733 46.3285 25.5349C46.0236 25.3733 45.6819 25.2875 45.327 25.2875C44.755 25.2875 44.2171 25.5103 43.813 25.9147C43.4085 26.319 43.1858 26.8568 43.1858 27.4287C43.1858 28.0007 43.4084 28.5384 43.813 28.9429L45.8159 30.9456C45.9519 31.0815 46.1364 31.1579 46.3288 31.1579C46.521 31.1579 46.7055 31.0815 46.8415 30.9455L48.8439 28.9428C49.6785 28.1079 49.6785 26.7494 48.8439 25.9149ZM47.818 27.9175L46.3286 29.4072L44.8385 27.9174C44.708 27.7869 44.6362 27.6134 44.6362 27.4288C44.6362 27.2442 44.708 27.0707 44.8386 26.9401C44.969 26.8097 45.1424 26.7378 45.3269 26.7378C45.5116 26.7378 45.6853 26.8098 45.8159 26.9404C45.9519 27.0763 46.1363 27.1527 46.3286 27.1527H46.3289C46.5212 27.1526 46.7056 27.0761 46.8416 26.9401C46.9719 26.8097 47.1451 26.7379 47.3295 26.7379C47.514 26.7379 47.6875 26.8098 47.818 26.9404C48.0874 27.2097 48.0872 27.648 47.818 27.9175Z" fill="white"/>
<path d="M60.5943 28.6803C60.4145 28.6803 56.1658 28.706 53.9285 30.9434L49.4325 35.4394L27.9513 30.0698C27.9461 30.0685 27.9408 30.0679 27.9356 30.0667C27.9218 30.0636 27.908 30.0608 27.8942 30.0585C27.8837 30.0567 27.8732 30.0552 27.8628 30.054C27.8503 30.0525 27.8378 30.0514 27.8253 30.0506C27.8136 30.0497 27.802 30.0491 27.7904 30.0489C27.7787 30.0487 27.7669 30.0488 27.7552 30.0491C27.7435 30.0495 27.7318 30.05 27.7201 30.0508C27.708 30.0518 27.6959 30.0532 27.6838 30.0547C27.6731 30.0561 27.6624 30.0574 27.652 30.0593C27.6384 30.0616 27.625 30.0645 27.6115 30.0676C27.6029 30.0697 27.5944 30.0716 27.5858 30.0739C27.5706 30.0779 27.5557 30.0828 27.5408 30.0879C27.5343 30.0901 27.5276 30.0923 27.521 30.0948C27.5052 30.1008 27.4896 30.1074 27.4741 30.1145C27.4685 30.117 27.463 30.1195 27.4576 30.1222C27.4423 30.1296 27.4274 30.1377 27.4127 30.1463C27.4069 30.1496 27.4009 30.153 27.3953 30.1565C27.382 30.1647 27.369 30.1735 27.3561 30.1826C27.3488 30.1877 27.3417 30.193 27.3346 30.1983C27.3239 30.2066 27.3134 30.2151 27.3032 30.2239C27.2943 30.2316 27.2856 30.2395 27.2771 30.2475C27.2724 30.2519 27.2674 30.2559 27.2628 30.2605L25.2119 32.3111C25.2084 32.3146 25.2055 32.3185 25.2021 32.3219C25.1928 32.3316 25.1839 32.3414 25.1751 32.3516C25.167 32.3611 25.1591 32.3707 25.1515 32.3805C25.1482 32.3847 25.1446 32.3886 25.1414 32.3929C25.1379 32.3976 25.135 32.4026 25.1316 32.4075C25.1237 32.4189 25.116 32.4304 25.1087 32.4422C25.1031 32.4511 25.0978 32.4601 25.0927 32.4692C25.0862 32.4809 25.0799 32.4927 25.0741 32.5047C25.0692 32.5147 25.0645 32.5246 25.0601 32.5347C25.0552 32.546 25.0506 32.5574 25.0463 32.5689C25.0422 32.5799 25.0382 32.5912 25.0346 32.6024C25.0311 32.6132 25.0279 32.624 25.025 32.6349C25.0218 32.647 25.0188 32.6591 25.0161 32.6712C25.0139 32.6817 25.0119 32.6922 25.0101 32.7027C25.0081 32.7152 25.0062 32.7277 25.0048 32.7402C25.0036 32.7509 25.0026 32.7617 25.0019 32.7724C25.001 32.7847 25.0004 32.7969 25.0001 32.8091C24.9999 32.8204 25 32.8316 25.0003 32.843C25.0007 32.8546 25.0011 32.8661 25.002 32.8777C25.0028 32.8897 25.0041 32.9017 25.0055 32.9136C25.0069 32.9244 25.0083 32.9351 25.0102 32.9456C25.0123 32.9582 25.0148 32.9707 25.0177 32.9831C25.0199 32.9932 25.0223 33.0031 25.025 33.0131C25.0284 33.0257 25.0323 33.0382 25.0364 33.0506C25.0396 33.0604 25.0428 33.0701 25.0466 33.0798C25.0511 33.0917 25.056 33.1036 25.0611 33.1153C25.0654 33.1254 25.0701 33.1353 25.0749 33.1452C25.0803 33.1559 25.086 33.1666 25.0919 33.1772C25.0977 33.1878 25.1039 33.1982 25.1103 33.2084C25.1162 33.2179 25.1223 33.2271 25.1286 33.2364C25.1362 33.2472 25.1441 33.2579 25.1523 33.2685C25.1586 33.2768 25.1653 33.2849 25.1721 33.293C25.1811 33.3035 25.1903 33.3138 25.2 33.3238C25.204 33.3281 25.2076 33.3326 25.2117 33.3368C25.2154 33.3405 25.2197 33.3437 25.2234 33.3474C25.2325 33.356 25.2418 33.3644 25.2513 33.3727C25.2614 33.3813 25.2716 33.3897 25.2819 33.3977C25.2858 33.4007 25.2894 33.4042 25.2934 33.4072L40.3419 44.5297L33.0494 51.8222L29.3726 50.5963C29.3654 50.5938 29.3582 50.5924 29.3509 50.5903C29.3374 50.5862 29.3239 50.5821 29.3101 50.5789C29.2983 50.5761 29.2864 50.5741 29.2745 50.5718C29.2636 50.5697 29.2528 50.5677 29.2418 50.5662C29.228 50.5643 29.2144 50.5631 29.2007 50.562C29.1912 50.5612 29.1819 50.5604 29.1724 50.56C29.158 50.5594 29.1437 50.5595 29.1292 50.5598C29.1201 50.56 29.1112 50.5601 29.1021 50.5606C29.0879 50.5614 29.0737 50.5628 29.0596 50.5645C29.0502 50.5656 29.0409 50.5667 29.0316 50.5681C29.0179 50.5702 29.0043 50.5729 28.9907 50.5759C28.9811 50.578 28.9717 50.58 28.9624 50.5823C28.9486 50.5859 28.9352 50.5901 28.9218 50.5944C28.9128 50.5973 28.9039 50.6 28.8949 50.6033C28.8806 50.6086 28.8664 50.6146 28.8525 50.6207C28.8449 50.624 28.8375 50.6271 28.83 50.6307C28.814 50.6384 28.7987 50.6468 28.7832 50.6556C28.779 50.6581 28.7745 50.6599 28.7703 50.6626L28.7608 50.6682C28.7596 50.6689 28.7584 50.6696 28.7572 50.6703L25.3581 52.7098C25.3563 52.7108 25.3547 52.7118 25.353 52.7129L25.3518 52.7136C25.3499 52.7147 25.3484 52.7161 25.3465 52.7172C25.328 52.7285 25.3098 52.7405 25.2923 52.7536C25.2867 52.7577 25.2815 52.7624 25.2761 52.7667C25.263 52.777 25.2499 52.7873 25.2376 52.7986C25.2291 52.8062 25.2215 52.8143 25.2135 52.8222C25.2048 52.8308 25.196 52.8392 25.1878 52.8482C25.177 52.8602 25.1672 52.8726 25.1573 52.8851C25.1526 52.8911 25.1475 52.8967 25.143 52.9029C25.1299 52.9203 25.118 52.9384 25.1067 52.9569C25.1056 52.9588 25.1043 52.9604 25.1031 52.9623C25.103 52.9624 25.1029 52.9626 25.1028 52.9628C25.078 53.0042 25.0575 53.0477 25.0414 53.0929C25.0345 53.1123 25.0289 53.1318 25.0238 53.1516C25.0231 53.1544 25.022 53.1571 25.0214 53.1599C25.0169 53.178 25.0135 53.1962 25.0104 53.2143C25.0096 53.2192 25.0083 53.224 25.0077 53.229C25.0053 53.2443 25.0042 53.2598 25.0029 53.2753C25.0023 53.2834 25.0011 53.2916 25.0008 53.2998C25.0002 53.3115 25.0005 53.3231 25.0006 53.3348C25.0005 53.347 25.0001 53.3591 25.0008 53.3713C25.0011 53.3791 25.0022 53.3868 25.0028 53.3945C25.0041 53.4104 25.0053 53.4261 25.0076 53.442C25.0083 53.4463 25.0094 53.4506 25.0101 53.4549C25.0132 53.4737 25.0167 53.4925 25.0214 53.5111C25.0216 53.512 25.0219 53.5128 25.0221 53.5137C25.0308 53.5473 25.0424 53.5805 25.056 53.6133C25.06 53.6231 25.0636 53.633 25.068 53.6426C25.0692 53.645 25.0707 53.6475 25.0718 53.6499C25.0813 53.6694 25.0913 53.6886 25.1024 53.7073C25.1027 53.7077 25.1028 53.7081 25.103 53.7085C25.1039 53.7099 25.1049 53.711 25.1058 53.7123C25.1198 53.7356 25.1356 53.7579 25.1524 53.7797C25.1574 53.786 25.1626 53.7923 25.1677 53.7985C25.1815 53.8151 25.196 53.831 25.2115 53.8465C25.2171 53.8522 25.2227 53.8582 25.2285 53.8638C25.2483 53.8824 25.2692 53.9002 25.2915 53.9167C25.2986 53.922 25.3062 53.9265 25.3135 53.9314C25.3262 53.9402 25.3384 53.9492 25.3518 53.9571L31.3925 57.5817L30.6816 58.2925C30.3984 58.5757 30.3984 59.0349 30.6816 59.318C30.8233 59.4596 31.0089 59.5305 31.1945 59.5305C31.38 59.5305 31.5656 59.4597 31.7073 59.318L32.4181 58.6072L36.0388 64.6415C36.0398 64.6432 36.0409 64.6449 36.0419 64.6466L36.0426 64.6478C36.043 64.6485 36.0436 64.6491 36.044 64.6498C36.0586 64.674 36.0749 64.6971 36.0925 64.7196C36.0971 64.7256 36.1019 64.7314 36.1067 64.7372C36.1208 64.7543 36.1359 64.7708 36.1519 64.7868C36.1572 64.7921 36.1623 64.7976 36.1677 64.8028C36.1878 64.8216 36.2088 64.8396 36.2314 64.8563C36.2379 64.8612 36.2449 64.8652 36.2516 64.8699C36.2647 64.879 36.2776 64.8883 36.2914 64.8966C36.2943 64.8984 36.2975 64.8996 36.3005 64.9012C36.3182 64.9116 36.3365 64.9203 36.3548 64.929C36.3662 64.9343 36.3772 64.9403 36.3887 64.945C36.4048 64.9516 36.4214 64.9566 36.4379 64.9621C36.4519 64.9667 36.4657 64.972 36.4799 64.9758C36.4941 64.9795 36.5088 64.9817 36.5231 64.9846C36.5394 64.9878 36.5557 64.9919 36.5721 64.994C36.5917 64.9965 36.6116 64.997 36.6316 64.9979C36.6424 64.9984 36.6532 65.0001 36.6638 65.0001C36.664 65.0001 36.6643 65 36.6645 65C36.6647 65 36.665 65.0001 36.6652 65.0001C36.6759 65.0001 36.6867 64.9984 36.6974 64.9979C36.7173 64.997 36.7372 64.9965 36.7568 64.994C36.7733 64.9919 36.7897 64.9879 36.8061 64.9845C36.8204 64.9817 36.8348 64.9795 36.849 64.9759C36.8633 64.9721 36.8773 64.9667 36.8915 64.9619C36.9078 64.9566 36.9241 64.9516 36.9401 64.945C36.9518 64.9402 36.9632 64.9341 36.9748 64.9286C36.9928 64.9201 37.0108 64.9115 37.0281 64.9013C37.0312 64.8996 37.0344 64.8983 37.0376 64.8966C37.052 64.8879 37.0654 64.8783 37.0789 64.8688C37.085 64.8646 37.0913 64.8609 37.0972 64.8564C37.12 64.8396 37.1411 64.8215 37.1614 64.8024C37.1666 64.7975 37.1716 64.7921 37.1767 64.787C37.1927 64.7708 37.208 64.7542 37.2224 64.7368C37.2271 64.7311 37.2319 64.7254 37.2364 64.7195C37.2538 64.6971 37.2702 64.674 37.2848 64.6498C37.2853 64.6491 37.2859 64.6484 37.2863 64.6476L37.2872 64.6461C37.2881 64.6445 37.2892 64.6429 37.2901 64.6413L39.3373 61.2289C39.3418 61.2214 39.3454 61.2136 39.3495 61.206C39.3557 61.1948 39.362 61.1837 39.3675 61.1721C39.3729 61.1609 39.3778 61.1495 39.3826 61.1379C39.3868 61.1278 39.3913 61.1178 39.3951 61.1075C39.3997 61.0951 39.4037 61.0825 39.4075 61.0699C39.4106 61.06 39.4137 61.0503 39.4164 61.0402C39.4197 61.0276 39.4224 61.0148 39.4252 61.0021C39.4273 60.9917 39.4295 60.9812 39.4312 60.9706C39.433 60.9585 39.4344 60.9464 39.4357 60.9342C39.437 60.9227 39.4382 60.911 39.4389 60.8994C39.4396 60.8882 39.4398 60.8769 39.4399 60.8657C39.4401 60.8537 39.4402 60.8411 39.4397 60.8285C39.4392 60.8179 39.4383 60.8072 39.4374 60.7966C39.4364 60.7838 39.4353 60.771 39.4336 60.7581C39.432 60.747 39.4298 60.7359 39.4279 60.7249C39.4256 60.7129 39.4236 60.701 39.4207 60.689C39.4177 60.6765 39.414 60.6642 39.4102 60.6518C39.4079 60.6435 39.4061 60.6351 39.4033 60.6269L38.1772 56.95L59.053 36.0743C59.054 36.0732 59.0552 36.0722 59.0563 36.0712C61.2937 33.8338 61.3194 29.5853 61.3194 29.4055C61.3195 29.005 60.9948 28.6803 60.5943 28.6803ZM26.8327 32.7414L27.9978 31.5764L48.2365 36.6353L41.3791 43.4926L26.8327 32.7414ZM58.0331 35.043C58.0323 35.0439 58.0314 35.0445 58.0305 35.0454L36.8347 56.2413C36.8323 56.2438 36.8303 56.2464 36.8279 56.2489C36.818 56.2591 36.8087 56.2697 36.7993 56.2804C36.7924 56.2884 36.7854 56.2963 36.7789 56.3044C36.7716 56.3135 36.7651 56.323 36.7583 56.3325C36.7507 56.343 36.7432 56.3534 36.7363 56.3642C36.7315 56.3716 36.7273 56.3794 36.7228 56.3869C36.7151 56.4 36.7076 56.4129 36.7008 56.4262C36.6975 56.4328 36.6947 56.4396 36.6914 56.4464C36.6846 56.4608 36.678 56.4753 36.6722 56.49C36.6693 56.4975 36.6669 56.5052 36.6642 56.5128C36.6593 56.5268 36.6542 56.5409 36.6501 56.5551C36.6473 56.5653 36.6452 56.5756 36.6426 56.5858C36.6398 56.5977 36.6366 56.6096 36.6344 56.6217C36.6321 56.6346 36.6306 56.6478 36.6289 56.661C36.6276 56.6706 36.6261 56.6801 36.6251 56.6898C36.6239 56.7043 36.6235 56.7187 36.6231 56.7333C36.6229 56.7421 36.6223 56.7508 36.6223 56.7595C36.6224 56.7734 36.6234 56.7872 36.6243 56.801C36.6249 56.811 36.6253 56.8209 36.6264 56.8308C36.6277 56.8427 36.6296 56.8546 36.6315 56.8664C36.6334 56.8787 36.6352 56.8909 36.6379 56.903C36.6398 56.9127 36.6424 56.9223 36.6448 56.9318C36.6484 56.9462 36.6522 56.9604 36.6567 56.9746C36.6577 56.9776 36.6582 56.9807 36.6592 56.9838L37.9215 60.7695L36.6639 62.8656L33.4746 57.5505L36.4929 54.5322C36.7764 54.2488 36.7764 53.7896 36.4932 53.5064C36.2099 53.2232 35.7508 53.2232 35.4676 53.5064L32.4494 56.5246L27.1342 53.3353L29.2304 52.0776L33.0161 53.34C33.0185 53.3408 33.0209 53.3409 33.0233 53.3418C33.0556 53.3522 33.0884 53.3602 33.1215 53.3659C33.1296 53.3673 33.1376 53.3683 33.1457 53.3694C33.1756 53.3735 33.2056 53.3762 33.2357 53.3766C33.239 53.3767 33.2422 53.3775 33.2456 53.3775C33.2493 53.3775 33.2529 53.3766 33.2566 53.3766C33.2853 53.3762 33.3139 53.3737 33.3425 53.3699C33.3515 53.3687 33.3604 53.3675 33.3693 53.366C33.4001 53.3607 33.4307 53.3536 33.4608 53.3442C33.4669 53.3422 33.4728 53.34 33.4789 53.3378C33.5062 53.3285 33.533 53.3176 33.5594 53.3049C33.5643 53.3026 33.5694 53.3005 33.5743 53.298C33.6027 53.2835 33.6302 53.2669 33.6568 53.2485C33.6637 53.2437 33.6705 53.2384 33.6773 53.2334C33.6981 53.2179 33.7181 53.2013 33.7375 53.1833C33.7434 53.1778 33.7498 53.1727 33.7555 53.167C33.7564 53.1662 33.7573 53.1655 33.7581 53.1647L54.954 31.9688C56.265 30.6577 58.6157 30.2816 59.8268 30.1738C59.7205 31.383 59.3466 33.7271 58.0331 35.043Z" fill="white"/>
<path d="M59.9485 62.1729C59.9478 62.1611 59.9466 62.1493 59.9453 62.1375C59.944 62.1265 59.9424 62.1156 59.9405 62.1047C59.9383 62.0909 59.9356 62.0773 59.9325 62.0637C59.9313 62.0584 59.9307 62.0532 59.9294 62.0478L55.2806 43.4503C55.1835 43.0617 54.7895 42.8256 54.4012 42.9227C54.0126 43.0198 53.7764 43.4135 53.8735 43.8021L58.4226 62.0012L57.2577 63.1662L47.8788 50.4767C47.6408 50.1546 47.1867 50.0866 46.8646 50.3246C46.5425 50.5626 46.4745 51.0167 46.7125 51.3388L56.5921 64.7055C56.5945 64.7088 56.5975 64.7118 56.6001 64.7151C56.6114 64.7298 56.6234 64.7439 56.6359 64.7579C56.6426 64.7653 56.649 64.7728 56.6558 64.7799C56.6582 64.7823 56.6601 64.7849 56.6625 64.7872C56.6729 64.7976 56.6839 64.8068 56.6949 64.8165C56.7018 64.8227 56.7085 64.8294 56.7157 64.8353C56.736 64.8519 56.7569 64.8673 56.7783 64.8813C56.7843 64.8852 56.7905 64.8885 56.7965 64.8921C56.8131 64.9023 56.83 64.9122 56.8473 64.921C56.8552 64.9249 56.8632 64.9284 56.8712 64.9321C56.8873 64.9396 56.9036 64.9466 56.9201 64.9528C56.9285 64.956 56.937 64.9588 56.9455 64.9617C56.9622 64.9672 56.9791 64.9721 56.9959 64.9764C57.0045 64.9786 57.0129 64.9808 57.0215 64.9827C57.0394 64.9865 57.0575 64.9895 57.0756 64.9921C57.0833 64.9932 57.0909 64.9946 57.0986 64.9953C57.1236 64.9981 57.1488 64.9996 57.1739 64.9997C57.1746 64.9997 57.1753 64.9998 57.176 64.9998C57.1769 64.9998 57.1777 64.9996 57.1785 64.9996C57.2107 64.9995 57.2429 64.9965 57.2748 64.9921C57.2825 64.991 57.29 64.9901 57.2977 64.9888C57.3295 64.9834 57.3611 64.976 57.3921 64.9663C57.3981 64.9644 57.4041 64.9621 57.41 64.96C57.4404 64.9496 57.4703 64.9374 57.4994 64.923C57.5021 64.9216 57.5047 64.9205 57.5075 64.9192C57.5387 64.9032 57.5687 64.8842 57.5977 64.8633C57.6005 64.8612 57.6036 64.8599 57.6065 64.8578C57.6107 64.8547 57.6143 64.8513 57.6183 64.8482C57.6286 64.8403 57.6386 64.8319 57.6484 64.8234C57.6581 64.8152 57.6675 64.8067 57.6766 64.798C57.6804 64.7943 57.6845 64.7912 57.6883 64.7874L59.739 62.7367C59.743 62.7326 59.7466 62.7281 59.7506 62.724C59.7597 62.7144 59.7684 62.7047 59.7769 62.6947C59.7845 62.6854 59.792 62.6762 59.7993 62.6669C59.8059 62.6582 59.8123 62.6495 59.8185 62.6406C59.8264 62.6295 59.8339 62.6183 59.8411 62.6069C59.8459 62.5989 59.8506 62.5909 59.8552 62.5829C59.8624 62.5703 59.8693 62.5577 59.8756 62.5449C59.8795 62.5368 59.8833 62.5287 59.8869 62.5204C59.8926 62.5076 59.8983 62.4947 59.9032 62.4815C59.9068 62.4722 59.9099 62.4628 59.9131 62.4534C59.9172 62.4412 59.9211 62.429 59.9245 62.4167C59.9276 62.4055 59.9301 62.3942 59.9328 62.383C59.9352 62.372 59.9376 62.3612 59.9395 62.3501C59.9418 62.3373 59.9434 62.3247 59.945 62.3118C59.9463 62.3017 59.9474 62.2916 59.9482 62.2815C59.9493 62.2682 59.9498 62.2549 59.9501 62.2416C59.9504 62.2312 59.9506 62.2209 59.9504 62.2105C59.9501 62.198 59.9494 62.1855 59.9485 62.1729Z" fill="white"/>
</svg>
